Coordinates
version=1
nRows=19
nColumns=63
inDegrees=yes

Units are S.I. units (second, meters, Newtons, ...)
If the header above contains a line with 'inDegrees', this indicates whether rotational values are in degrees (yes) or radians (no).

endheader
time	pelvis_tilt	pelvis_list	pelvis_rotation	pelvis_tx	pelvis_ty	pelvis_tz	hip_flexion_r	hip_adduction_r	hip_rotation_r	knee_angle_r	knee_angle_r_beta	ankle_angle_r	subtalar_angle_r	mtp_angle_r	hip_flexion_l	hip_adduction_l	hip_rotation_l	knee_angle_l	knee_angle_l_beta	ankle_angle_l	subtalar_angle_l	mtp_angle_l	L5_S1_Flex_Ext	L5_S1_Lat_Bending	L5_S1_axial_rotation	L4_L5_Flex_Ext	L4_L5_Lat_Bending	L4_L5_axial_rotation	L3_L4_Flex_Ext	L3_L4_Lat_Bending	L3_L4_axial_rotation	L2_L3_Flex_Ext	L2_L3_Lat_Bending	L2_L3_axial_rotation	L1_L2_Flex_Ext	L1_L2_Lat_Bending	L1_L2_axial_rotation	L1_T12_Flex_Ext	L1_T12_Lat_Bending	L1_T12_axial_rotation	Abs_r3	Abs_r2	Abs_r1	Abs_t1	Abs_t2	neck_flexion	neck_bending	neck_rotation	arm_flex_r	arm_add_r	arm_rot_r	elbow_flex_r	pro_sup_r	wrist_flex_r	wrist_dev_r	arm_flex_l	arm_add_l	arm_rot_l	elbow_flex_l	pro_sup_l	wrist_flex_l	wrist_dev_l
1.616667	-4.542381	0.855982	97.417462	0.156466	1.015758	0.415213	-1.071904	-4.496060	-11.134596	10.291639	0.179623	34.689537	10.645566	0.000000	-3.924906	2.725360	-2.172655	2.797873	0.048832	27.573398	11.512572	0.000000	-0.563944	-0.622553	-3.614894	-1.047300	-0.827995	-3.840825	-0.926503	-1.513675	-3.840825	-0.644531	-1.513675	-3.163032	-0.523678	-1.269510	-2.937101	-0.322237	-0.964335	-2.711171	-4.028193	-7.042443	-20.104957	0.000000	0.000000	-3.708213	-5.914621	-0.598267	-63.580211	-55.292584	-123.375241	-1.683150	85.008996	-8.161917	4.165194	-13.404340	-51.291173	42.123711	5.924448	20.333486	-22.424030	-5.715190
1.633333	-3.822233	-0.522754	97.420624	0.155549	1.015380	0.411677	0.006727	-3.847652	-10.812305	9.757051	0.170293	33.983329	10.116408	0.000000	-2.738611	2.206657	-1.475961	2.411538	0.042089	27.194666	10.798570	0.000000	-0.386369	-0.593478	-3.023185	-0.717526	-0.789325	-3.212134	-0.634766	-1.442982	-3.212134	-0.441581	-1.442982	-2.645287	-0.358782	-1.210220	-2.456338	-0.220771	-0.919297	-2.267389	-2.759796	-6.713539	-16.814050	0.000000	0.000000	-4.318358	-4.250946	-5.973204	-66.435331	-55.024808	-121.946309	-0.918195	85.151851	-7.143105	3.535414	-9.886138	-50.929514	47.227478	5.093040	20.965922	-23.650555	-6.658597
1.650000	-3.121437	-1.759424	97.437450	0.154512	1.015031	0.408559	0.986875	-3.223659	-10.450199	9.285692	0.162066	33.293458	9.456932	0.000000	-1.655335	1.702500	-0.880162	2.070432	0.036136	26.848520	10.197909	0.000000	-0.228010	-0.562364	-2.477563	-0.423437	-0.747944	-2.632411	-0.374597	-1.367332	-2.632411	-0.260592	-1.367332	-2.167868	-0.211730	-1.146773	-2.013020	-0.130285	-0.871102	-1.858172	-1.628650	-6.361574	-13.779463	0.000000	0.000000	-4.783598	-2.680272	-10.961812	-69.963150	-54.848280	-116.480529	0.595922	81.922868	-6.298572	3.034660	-6.790274	-50.562477	52.210602	4.308863	21.039443	-24.752748	-7.893956
1.666667	-2.532578	-2.750379	97.520965	0.153475	1.014787	0.406145	1.771875	-2.701434	-10.094562	8.908219	0.155478	32.671152	8.670782	0.000000	-0.764485	1.280424	-0.406517	1.808549	0.031565	26.514394	9.759583	0.000000	-0.100167	-0.540093	-2.014445	-0.186020	-0.718323	-2.140348	-0.164564	-1.313181	-2.140348	-0.114481	-1.313181	-1.762639	-0.093015	-1.101357	-1.636736	-0.057235	-0.836603	-1.510834	-0.715481	-6.109635	-11.203737	0.000000	0.000000	-5.111384	-1.219369	-15.243638	-73.958537	-54.763519	-107.242619	2.727072	75.303268	-5.594873	2.715933	-4.277910	-50.218387	56.880360	3.621591	20.466040	-25.605102	-9.316792
1.683333	-2.059359	-3.444075	97.621347	0.152513	1.014690	0.404562	2.330698	-2.273908	-9.583006	8.639935	0.150795	32.083580	7.629613	0.000000	-0.113686	0.938047	-0.117239	1.637993	0.028588	26.203349	9.474306	0.000000	-0.010334	-0.528566	-1.658447	-0.019191	-0.702993	-1.762100	-0.016978	-1.285156	-1.762100	-0.011811	-1.285156	-1.451141	-0.009596	-1.077852	-1.347489	-0.005905	-0.818749	-1.243836	-0.073814	-5.979247	-9.223787	0.000000	0.000000	-5.271132	0.088180	-18.711531	-77.502245	-54.933043	-101.381583	4.872008	71.401835	-5.067010	2.575249	-2.616016	-49.813899	60.377871	3.115623	18.851885	-26.218744	-11.170978
1.700000	-1.710544	-3.868213	97.787467	0.151611	1.014727	0.403765	2.679833	-1.960887	-9.211322	8.483644	0.148068	31.609847	6.679308	0.000000	0.327151	0.676851	-0.020784	1.567671	0.027361	25.927823	9.400748	0.000000	0.045360	-0.524752	-1.414632	0.084237	-0.697921	-1.503047	0.074521	-1.275883	-1.503047	0.051841	-1.275883	-1.237803	0.042121	-1.070075	-1.149389	0.025918	-0.812841	-1.060974	0.323999	-5.936103	-7.867761	0.000000	0.000000	-5.284703	1.195491	-21.208906	-81.077272	-55.349358	-95.063367	7.193065	66.180034	-4.655325	2.439880	-1.779303	-49.361774	62.142101	2.836827	15.785316	-26.820596	-13.259438
1.716667	-1.484507	-4.072388	98.015498	0.150804	1.014873	0.403645	2.857455	-1.758866	-8.977861	8.418942	0.146938	31.246183	5.832479	0.000000	0.597408	0.497321	-0.105684	1.584404	0.027653	25.693713	9.545937	0.000000	0.071826	-0.528067	-1.279277	0.133387	-0.702329	-1.359232	0.118002	-1.283942	-1.359232	0.082089	-1.283942	-1.119367	0.066697	-1.076834	-1.039413	0.041041	-0.817975	-0.959458	0.513043	-5.973597	-7.114956	0.000000	0.000000	-5.175686	2.121248	-22.760117	-84.566610	-56.018423	-88.664577	9.560127	60.034899	-4.316758	2.254189	-1.676677	-48.938485	62.697312	2.698221	13.000918	-27.350743	-14.587442
1.733333	-1.354067	-4.110748	98.304285	0.150093	1.015069	0.404018	2.896540	-1.637362	-8.862316	8.405336	0.146701	30.985230	5.077595	0.000000	0.740053	0.380635	-0.314226	1.668455	0.029120	25.506310	9.856040	0.000000	0.075720	-0.534890	-1.240581	0.140620	-0.711404	-1.318117	0.124401	-1.300532	-1.318117	0.086541	-1.300532	-1.085508	0.070314	-1.090748	-1.007972	0.043267	-0.828545	-0.930435	0.540864	-6.050783	-6.899737	0.000000	0.000000	-4.974809	2.865332	-23.461529	-87.986681	-56.909010	-82.420900	11.951860	52.917895	-4.205807	1.983978	-2.148272	-48.605385	63.049641	2.648163	11.715648	-27.319562	-14.867961
1.750000	-1.305775	-4.050903	98.622653	0.149496	1.015252	0.404683	2.852607	-1.588137	-8.826328	8.421343	0.146980	30.817451	4.408091	0.000000	0.802151	0.325657	-0.615410	1.790288	0.031246	25.364159	10.303183	0.000000	0.065864	-0.544778	-1.270927	0.122316	-0.724554	-1.350360	0.108208	-1.324573	-1.350360	0.075276	-1.324573	-1.112061	0.061161	-1.110911	-1.032628	0.037635	-0.843861	-0.953195	0.470459	-6.162636	-7.068514	0.000000	0.000000	-4.720182	3.469246	-23.518149	-91.306988	-57.955918	-76.526643	14.319581	44.911287	-4.448453	1.559713	-3.077960	-48.423727	63.215718	2.676886	12.132350	-26.685015	-14.134800
1.766667	-1.320116	-3.953577	98.935550	0.149026	1.015373	0.405427	2.770605	-1.588168	-8.748149	8.438042	0.147272	30.710975	3.709437	0.000000	0.816080	0.328305	-0.850602	1.905414	0.033256	25.234898	10.669090	0.000000	0.050671	-0.557721	-1.334412	0.094101	-0.741769	-1.417812	0.083247	-1.356043	-1.417812	0.057912	-1.356043	-1.167610	0.047053	-1.137305	-1.084210	0.028953	-0.863910	-1.000809	0.361937	-6.309054	-7.421598	0.000000	0.000000	-4.458090	3.976746	-23.221131	-94.313388	-59.049534	-71.503367	16.596101	37.006383	-4.993837	1.091330	-4.346253	-48.427058	62.725651	2.778847	14.042734	-25.642398	-12.567031
1.783333	-1.378565	-3.850930	99.230322	0.148628	1.015419	0.406154	2.680917	-1.635570	-8.723849	8.462173	0.147693	30.671377	3.122177	0.000000	0.808583	0.375292	-1.045746	2.006985	0.035028	25.128978	11.006309	0.000000	0.034648	-0.573759	-1.405449	0.064345	-0.763100	-1.493290	0.056924	-1.395038	-1.493290	0.039600	-1.395038	-1.229768	0.032174	-1.170010	-1.141927	0.019798	-0.888753	-1.054087	0.247490	-6.490479	-7.816686	0.000000	0.000000	-4.227857	4.409620	-22.829619	-96.968587	-60.121357	-67.277307	18.776792	29.372289	-5.876327	0.640458	-5.844617	-48.629767	61.486805	2.959125	16.886370	-24.374028	-10.521016
1.800000	-1.460289	-3.754372	99.490966	0.148243	1.015387	0.406799	2.589668	-1.709093	-8.711418	8.481065	0.148023	30.671489	2.603678	0.000000	0.779703	0.454376	-1.023238	2.071538	0.036155	25.028177	11.083773	0.000000	0.020520	-0.591143	-1.462299	0.038107	-0.786220	-1.553693	0.033712	-1.437305	-1.553693	0.023452	-1.437305	-1.279512	0.019054	-1.205459	-1.188118	0.011725	-0.915681	-1.096724	0.146569	-6.687130	-8.132870	0.000000	0.000000	-4.083865	4.802648	-22.514988	-99.331697	-61.122764	-64.418249	20.833168	23.685891	-6.894914	0.334628	-7.410680	-49.021031	59.468562	3.181878	20.692380	-22.978893	-8.136357
1.816667	-1.560005	-3.659376	99.693370	0.147848	1.015329	0.407397	2.504523	-1.810985	-8.752865	8.505740	0.148453	30.700459	2.235098	0.000000	0.731079	0.562058	-0.867262	2.105839	0.036754	24.943172	10.993142	0.000000	0.007986	-0.608122	-1.497649	0.014831	-0.808803	-1.591253	0.013120	-1.478588	-1.591253	0.009127	-1.478588	-1.310443	0.007416	-1.240083	-1.216840	0.004563	-0.941981	-1.123237	0.057043	-6.879200	-8.329477	0.000000	0.000000	-4.049803	5.124202	-22.291599	-101.385018	-62.032683	-62.689056	22.784238	19.694568	-7.922951	0.121582	-8.956800	-49.581369	56.864850	3.461072	25.117145	-21.576030	-5.723129
1.833333	-1.656224	-3.561049	99.851873	0.147336	1.015299	0.407958	2.420266	-1.932269	-8.977856	8.532656	0.148923	30.744218	2.171636	0.000000	0.664990	0.680840	-0.546602	2.111872	0.036859	24.872901	10.720143	0.000000	-0.002699	-0.617453	-1.515598	-0.005013	-0.821212	-1.610323	-0.004435	-1.501274	-1.610323	-0.003085	-1.501274	-1.326148	-0.002507	-1.259109	-1.231423	-0.001542	-0.956434	-1.136699	-0.019281	-6.984747	-8.429302	0.000000	0.000000	-4.136746	5.269424	-22.023628	-103.297859	-62.802427	-62.341144	24.620613	17.369607	-8.812367	-0.015871	-10.195776	-50.425728	56.933895	3.599156	26.960395	-20.234207	-3.783161
1.850000	-1.735914	-3.462384	99.960267	0.146701	1.015317	0.408482	2.343359	-2.060551	-9.374809	8.558525	0.149374	30.783271	2.414097	0.000000	0.589484	0.797812	-0.138176	2.094546	0.036557	24.834077	10.361000	0.000000	-0.010801	-0.616231	-1.526610	-0.020058	-0.819587	-1.622023	-0.017744	-1.498303	-1.622023	-0.012344	-1.498303	-1.335784	-0.010029	-1.256618	-1.240371	-0.006171	-0.954541	-1.144958	-0.077148	-6.970924	-8.490549	0.000000	0.000000	-4.318919	5.209898	-21.596052	-105.475394	-63.456188	-63.628884	26.256263	16.579395	-9.521158	-0.012920	-11.623480	-51.214003	55.938140	4.084701	29.376429	-19.164504	-1.917099
1.866667	-1.789397	-3.369559	100.025215	0.145940	1.015401	0.408943	2.275742	-2.183378	-9.913624	8.574076	0.149646	30.795914	2.922460	0.000000	0.513085	0.902258	0.324519	2.055955	0.035883	24.824608	9.961400	0.000000	-0.014081	-0.602082	-1.529299	-0.026151	-0.800768	-1.624880	-0.023134	-1.463901	-1.624880	-0.016094	-1.463901	-1.338137	-0.013076	-1.227765	-1.242555	-0.008046	-0.932624	-1.146974	-0.100582	-6.810867	-8.505503	0.000000	0.000000	-4.592156	4.935307	-20.941897	-107.989285	-63.962307	-66.758005	27.621800	17.569234	-9.930434	0.319026	-13.188288	-51.928598	53.976674	4.899275	32.323386	-18.335594	-0.117703
1.883333	-1.815050	-3.270405	100.060491	0.145036	1.015560	0.409375	2.204560	-2.300377	-10.626364	8.586915	0.149870	30.798078	3.731945	0.000000	0.420547	0.993543	0.931738	1.988317	0.034703	24.813880	9.393983	0.000000	-0.014132	-0.576630	-1.527326	-0.026245	-0.766918	-1.622784	-0.023218	-1.402018	-1.622784	-0.016152	-1.402018	-1.336411	-0.013123	-1.175863	-1.240953	-0.008075	-0.893200	-1.145495	-0.100944	-6.522952	-8.494531	0.000000	0.000000	-4.939007	4.508889	-20.088657	-111.293941	-64.411873	-72.003932	28.536922	19.933352	-10.206519	0.982716	-15.083109	-52.452842	48.694693	6.135814	37.323992	-17.869351	1.558034
1.900000	-1.818421	-3.176052	100.085377	0.144059	1.015798	0.409765	2.132215	-2.402859	-11.395466	8.590219	0.149928	30.761623	4.658705	0.000000	0.329670	1.068850	1.569619	1.911140	0.033356	24.796264	8.809019	0.000000	-0.009888	-0.545855	-1.509565	-0.018363	-0.725988	-1.603913	-0.016245	-1.327193	-1.603913	-0.011301	-1.327193	-1.320870	-0.009182	-1.113108	-1.226522	-0.005650	-0.845530	-1.132174	-0.070628	-6.174826	-8.395749	0.000000	0.000000	-5.340539	4.080743	-19.220972	-114.304315	-64.903005	-79.248310	28.885091	24.783039	-9.991553	2.108861	-16.891024	-53.021835	43.404187	7.308411	40.785398	-17.376062	2.537232
1.916667	-1.809247	-3.081945	100.114675	0.143045	1.016099	0.410136	2.049370	-2.489416	-12.120078	8.586160	0.149857	30.680528	5.554171	0.000000	0.239417	1.131822	2.196531	1.839358	0.032103	24.756912	8.251286	0.000000	-0.003638	-0.515860	-1.472745	-0.006756	-0.686093	-1.564792	-0.005977	-1.254261	-1.564792	-0.004158	-1.254261	-1.288652	-0.003378	-1.051941	-1.196605	-0.002079	-0.799067	-1.104559	-0.025986	-5.835507	-8.190966	0.000000	0.000000	-5.764607	3.762921	-18.513246	-116.610310	-65.430566	-87.919087	28.731722	32.153656	-9.130845	3.668089	-18.748861	-53.697108	37.662203	8.322796	42.486360	-17.130632	2.424302
